# xmcd
#
# Track frame offsets:
# 150
# 18121
# 31426
# 47891
# 63899
# 78879
# 89154
# 102906
# 113374
# 127116
# 138794
# 150159
# 161294
# 180219
#
# Disc length: 2549 seconds
#
#
# Revision: 0
# Processed by: cddbd v1.5.2PL0 Copyright (c) Steve Scherf et al.
# Submitted via: FreeRIP 2.96 
#
DISCID=9a09f30e
DTITLE=GINO E GENO - SUPER3 - CD3 - SUPER 3
DYEAR=1900
DGENRE=
TTITLE0=LOROTA
TTITLE1=QUATRO TIPO DE MULHERES
TTITLE2=ELA CHOROU DE AMOR
TTITLE3=ESQUINA DA SAUDADE
TTITLE4=AS AGUAS DO SÃO FRANCISCO
TTITLE5=SISTEMA CAIPIRA
TTITLE6=INDO PRA GOIANIA
TTITLE7=VONTADE DE TE VER
TTITLE8=CHUVA GROSSA
TTITLE9=A VIOLA CHOROU
TTITLE10=JEITO CAIPIRA
TTITLE11=A BOCA DO BALÃO
TTITLE12=CORAÇÃO CIGANO
TTITLE13=BATE COXA
EXTD=
EXTT0=
EXTT1=
EXTT2=
EXTT3=
EXTT4=
EXTT5=
EXTT6=
EXTT7=
EXTT8=
EXTT9=
EXTT10=
EXTT11=
EXTT12=
EXTT13=
PLAYORDER=
